<?xml version="1.0" standalone="no"?>
<!DOCTYPE svg PUBLIC "-//W3C//DTD SVG 20010904//EN"
 "http://www.w3.org/TR/2001/REC-SVG-20010904/DTD/svg10.dtd">
<svg version="1.0" xmlns="http://www.w3.org/2000/svg"
 width="700.000000pt" height="700.000000pt" viewBox="0 0 700.000000 700.000000"
 preserveAspectRatio="xMidYMid meet">
<metadata>
Created by potrace 1.14, written by Peter Selinger 2001-2017
</metadata>
<g transform="translate(0.000000,700.000000) scale(0.100000,-0.100000)"
fill="#000000" stroke="none">
<path d="M3240 6568 c-85 -88 -129 -235 -109 -361 14 -88 57 -171 132 -256
105 -118 147 -223 147 -368 0 -46 -2 -83 -4 -83 -3 0 -58 -7 -123 -15 -157
-21 -332 -65 -469 -120 -62 -25 -115 -45 -118 -45 -11 0 -6 71 10 142 25 109
16 226 -22 308 -45 95 -110 162 -201 207 -116 57 -130 54 -227 -49 -45 -47
-95 -92 -112 -101 -17 -9 -71 -23 -120 -32 -49 -10 -101 -23 -116 -31 -43 -22
-61 -86 -56 -196 3 -78 9 -104 35 -160 36 -76 107 -158 169 -194 22 -13 72
-35 110 -48 76 -26 158 -65 151 -72 -2 -2 -33 2 -68 11 -78 18 -139 19 -174 3
-28 -13 -59 -66 -91 -156 -26 -74 -62 -114 -160 -172 -46 -29 -92 -63 -101
-76 -22 -35 -12 -126 22 -203 24 -54 26 -64 15 -90 -22 -55 -31 -56 -122 -13
-136 64 -215 144 -287 292 -102 211 -334 307 -549 228 -67 -25 -78 -46 -86
-176 -7 -121 -18 -146 -105 -250 -33 -40 -63 -83 -67 -97 -8 -34 12 -87 55
-144 82 -110 195 -171 329 -178 81 -5 94 -3 197 33 101 34 119 38 220 38 95 0
120 -4 185 -27 41 -15 78 -31 82 -35 5 -5 -3 -54 -16 -111 -38 -154 -58 -336
-54 -489 2 -83 -1 -132 -7 -132 -22 1 -100 42 -168 89 -108 75 -158 94 -259
99 -113 6 -201 -20 -287 -83 -68 -50 -101 -95 -101 -139 0 -15 18 -66 40 -113
54 -116 56 -135 29 -267 l-23 -113 20 -34 c14 -24 41 -44 94 -71 91 -46 173
-60 265 -47 108 15 167 49 290 169 61 59 124 114 142 123 l31 17 27 -83 c38
-118 99 -257 162 -370 30 -53 52 -101 49 -106 -12 -19 -176 -120 -231 -142
-56 -22 -71 -24 -230 -21 -146 2 -179 -1 -236 -18 -154 -46 -283 -195 -297
-342 -6 -70 4 -84 114 -158 39 -27 79 -61 90 -77 10 -15 34 -75 54 -132 45
-135 58 -145 173 -144 133 2 233 47 326 148 52 56 85 126 105 221 36 168 97
266 229 364 l81 61 23 -23 23 -23 -22 -55 c-15 -40 -21 -79 -22 -142 -1 -120
8 -132 148 -179 59 -19 116 -45 127 -56 20 -20 20 -20 -34 -56 -160 -105 -240
-340 -173 -501 20 -48 51 -65 140 -76 134 -17 151 -24 239 -109 122 -116 133
-119 233 -70 71 35 159 120 193 187 28 55 51 146 51 202 0 25 -11 90 -25 145
-25 103 -31 145 -17 145 4 0 36 -9 71 -20 36 -12 118 -32 184 -45 66 -13 121
-26 123 -28 3 -2 -34 -46 -82 -96 -93 -100 -125 -158 -144 -259 -18 -103 9
-228 70 -316 57 -83 91 -92 214 -54 102 31 154 28 259 -16 48 -20 101 -36 119
-36 41 0 87 36 131 103 103 155 102 355 -3 497 -78 108 -113 160 -108 165 2 3
40 10 84 16 122 16 252 46 363 84 l101 34 0 -73 c0 -40 -9 -117 -21 -171 -17
-84 -19 -108 -9 -169 21 -141 113 -270 235 -330 112 -55 146 -47 231 56 64 78
112 105 230 129 158 31 169 45 169 204 0 106 -1 113 -36 185 -55 115 -138 191
-258 234 l-59 21 42 70 c78 133 104 155 235 201 71 25 111 62 112 106 3 54 -2
111 -11 146 -10 37 -12 38 76 -24 117 -82 178 -172 217 -320 31 -116 67 -185
127 -245 129 -129 382 -173 452 -78 11 14 28 61 39 104 30 118 49 146 139 215
44 34 88 72 96 86 37 56 -10 188 -102 285 -104 108 -236 153 -388 131 -189
-27 -305 -2 -453 100 l-43 29 50 99 c130 258 200 567 200 879 l0 130 46 -16
c25 -8 87 -42 137 -75 50 -33 109 -67 132 -75 159 -58 337 -19 459 99 51 49
56 58 56 96 0 30 -12 67 -41 123 -50 101 -56 148 -31 265 11 50 17 103 15 118
-7 35 -73 91 -142 118 -46 19 -76 23 -166 23 -104 0 -114 -2 -180 -33 -56 -27
-90 -54 -175 -140 -110 -111 -167 -154 -174 -130 -58 195 -133 374 -204 492
-23 37 -42 72 -42 76 0 13 130 108 185 135 90 44 168 58 286 51 126 -7 192 3
277 45 115 56 203 170 232 300 18 78 2 105 -104 173 -95 62 -127 102 -156 194
-43 138 -67 162 -167 162 -164 0 -322 -99 -393 -244 -16 -34 -38 -105 -49
-160 -32 -157 -86 -249 -203 -342 -35 -28 -68 -53 -74 -57 -7 -4 -65 46 -142
122 -114 114 -130 134 -136 171 -17 106 -49 134 -166 147 -34 3 -63 9 -65 14
-8 12 46 46 142 90 161 74 237 152 283 290 28 82 25 209 -7 280 -24 53 -46 64
-153 74 -116 11 -148 23 -219 90 -130 121 -145 125 -244 73 -121 -65 -205
-183 -227 -321 -12 -75 -7 -125 21 -212 10 -33 23 -89 27 -123 9 -63 8 -64
-17 -74 -20 -7 -54 -3 -151 21 -69 17 -168 37 -220 44 l-95 13 -3 48 c-9 135
46 286 143 396 117 133 150 214 142 358 -4 81 -9 102 -41 166 -44 90 -101 146
-149 146 -18 0 -70 -13 -115 -30 -46 -16 -101 -30 -123 -30 -22 0 -81 14 -131
30 -125 41 -148 40 -198 -12z m1145 -1263 c238 -63 432 -250 515 -495 31 -90
39 -287 16 -384 -50 -210 -201 -402 -391 -495 -366 -181 -798 -40 -985 321
-57 108 -80 207 -80 338 0 131 23 230 80 338 107 206 303 351 531 391 72 13
239 5 314 -14z m-1650 -378 c116 -38 198 -90 295 -187 64 -64 96 -105 127
-165 159 -308 103 -650 -144 -886 -226 -215 -554 -263 -839 -123 -177 87 -311
249 -376 454 -33 108 -33 302 0 410 79 253 281 447 534 511 109 28 295 21 403
-14z m2069 -1599 c35 -125 46 -340 26 -508 -41 -334 -150 -590 -334 -778 -213
-219 -450 -303 -772 -273 -646 60 -1132 453 -1249 1011 -18 86 -18 80 -2 75 6
-2 104 -16 217 -30 401 -49 734 -51 976 -4 402 77 789 261 1040 494 38 35 72
64 76 65 4 0 14 -24 22 -52z"/>
<path d="M4071 5160 c-320 -67 -482 -464 -324 -797 65 -138 193 -254 326 -294
103 -32 228 -24 321 19 171 80 285 275 286 488 0 248 -161 490 -376 564 -66
23 -174 32 -233 20z m198 -98 c104 -52 134 -193 59 -278 -42 -48 -83 -67 -143
-67 -80 0 -138 40 -170 115 -50 120 37 248 170 248 28 0 65 -8 84 -18z"/>
<path d="M2360 4786 c-167 -45 -298 -186 -345 -371 -17 -67 -19 -208 -5 -275
59 -265 274 -459 510 -460 175 -1 334 104 414 273 45 95 60 174 54 295 -16
308 -249 554 -523 551 -33 0 -80 -6 -105 -13z m192 -76 c79 -22 130 -94 130
-180 -1 -55 -18 -93 -59 -132 -114 -108 -303 -27 -305 132 0 83 44 149 119
175 47 17 67 18 115 5z"/>
</g>
</svg>
